<svg width="24" height="24" viewBox="0 0 24 24" fill="none" xmlns="http://www.w3.org/2000/svg">
<path d="M15.813 7.24186C15.813 6.98947 15.9134 6.74742 16.0922 6.56895C16.271 6.39048 16.5134 6.29022 16.7662 6.29022C17.0191 6.29022 17.2615 6.39048 17.4403 6.56895C17.6191 6.74742 17.7195 6.98947 17.7195 7.24186C17.7195 7.49425 17.6191 7.7363 17.4403 7.91477C17.2615 8.09324 17.0191 8.1935 16.7662 8.1935C16.5134 8.1935 16.271 8.09324 16.0922 7.91477C15.9134 7.7363 15.813 7.49425 15.813 7.24186Z" fill="black"/>
<path fill-rule="evenodd" clip-rule="evenodd" d="M12 7.47974C10.7991 7.47974 9.64739 7.95598 8.79824 8.8037C7.94909 9.65141 7.47205 10.8012 7.47205 12C7.47205 13.1989 7.94909 14.3486 8.79824 15.1963C9.64739 16.0441 10.7991 16.5203 12 16.5203C13.2008 16.5203 14.3525 16.0441 15.2017 15.1963C16.0508 14.3486 16.5279 13.1989 16.5279 12C16.5279 10.8012 16.0508 9.65141 15.2017 8.8037C14.3525 7.95598 13.2008 7.47974 12 7.47974ZM8.90192 12C8.90192 11.1797 9.22832 10.3931 9.80931 9.81306C10.3903 9.23304 11.1783 8.90719 12 8.90719C12.8216 8.90719 13.6096 9.23304 14.1906 9.81306C14.7716 10.3931 15.098 11.1797 15.098 12C15.098 12.8203 14.7716 13.607 14.1906 14.187C13.6096 14.767 12.8216 15.0928 12 15.0928C11.1783 15.0928 10.3903 14.767 9.80931 14.187C9.22832 13.607 8.90192 12.8203 8.90192 12Z" fill="black"/>
<path fill-rule="evenodd" clip-rule="evenodd" d="M17.0122 3.27662C13.6809 2.90779 10.3191 2.90779 6.98783 3.27662C5.0699 3.49074 3.52087 4.99909 3.29591 6.9233C2.90136 10.2965 2.90136 13.7041 3.29591 17.0773C3.52087 19.0015 5.06894 20.5098 6.98783 20.724C10.3191 21.092 13.6809 21.092 17.0122 20.724C18.9301 20.5098 20.4791 19.0015 20.7041 17.0773C21.0986 13.7041 21.0986 10.2965 20.7041 6.9233C20.4791 4.99909 18.9311 3.49074 17.0122 3.27662ZM7.14607 4.69457C10.3721 4.33742 13.6279 4.33742 16.8539 4.69457C18.1217 4.83731 19.137 5.83558 19.2847 7.08984C19.6671 10.3523 19.6671 13.6482 19.2847 16.9107C19.2083 17.5246 18.9268 18.0948 18.4857 18.5292C18.0447 18.9637 17.4698 19.237 16.8539 19.3051C13.6279 19.6622 10.3721 19.6622 7.14607 19.3051C6.53022 19.237 5.95532 18.9637 5.51426 18.5292C5.07319 18.0948 4.79171 17.5246 4.71529 16.9107C4.3329 13.6482 4.3329 10.3523 4.71529 7.08984C4.79171 6.47599 5.07319 5.90579 5.51426 5.47134C5.95532 5.03689 6.53022 4.76261 7.14607 4.69457Z" fill="black"/>
</svg>
