<svg width="24" height="24" viewBox="0 0 24 24" fill="none" xmlns="http://www.w3.org/2000/svg">
<path d="M8.82286 4H6.28571C5.67951 4 5.09812 4.24082 4.66947 4.66947C4.24082 5.09812 4 5.67951 4 6.28571V8.57143C4 14.8834 9.11657 20 15.4286 20H17.7143C18.3205 20 18.9019 19.7592 19.3305 19.3305C19.7592 18.9019 20 18.3205 20 17.7143V16.1349C19.9999 15.9227 19.9407 15.7147 19.8291 15.5343C19.7175 15.3538 19.5578 15.208 19.368 15.1131L16.6069 13.7326C16.4604 13.6593 16.2999 13.6184 16.1363 13.6126C15.9727 13.6067 15.8097 13.6361 15.6584 13.6988C15.5071 13.7614 15.371 13.8558 15.2594 13.9756C15.1478 14.0954 15.0632 14.2378 15.0114 14.3931L14.672 15.4137C14.5654 15.7335 14.3458 16.0033 14.0543 16.1725C13.7629 16.3417 13.4196 16.3986 13.0891 16.3326C11.7515 16.0644 10.5231 15.4066 9.5586 14.4418C8.59405 13.477 7.93645 12.2485 7.66857 10.9109C7.60254 10.5804 7.65948 10.2371 7.82868 9.94567C7.99788 9.6542 8.26769 9.43455 8.58743 9.328L9.85371 8.90514C10.1266 8.81412 10.3551 8.62354 10.4936 8.37145C10.6322 8.11936 10.6706 7.82429 10.6011 7.54514L9.93143 4.86514C9.86952 4.618 9.7268 4.39864 9.52595 4.24189C9.3251 4.08515 9.07763 4.00001 8.82286 4Z" stroke="black"/>
</svg>
