<svg width="24" height="24" viewBox="0 0 24 24" fill="none" xmlns="http://www.w3.org/2000/svg">
<path d="M9.33333 11.9999C9.33333 12.7367 9.05238 13.4432 8.55229 13.9641C8.05219 14.4851 7.37391 14.7777 6.66667 14.7777C5.95942 14.7777 5.28115 14.4851 4.78105 13.9641C4.28095 13.4432 4 12.7367 4 11.9999C4 11.2632 4.28095 10.5567 4.78105 10.0358C5.28115 9.51483 5.95942 9.22217 6.66667 9.22217C7.37391 9.22217 8.05219 9.51483 8.55229 10.0358C9.05238 10.5567 9.33333 11.2632 9.33333 11.9999Z" stroke="black"/>
<path d="M14.6667 5.88892L9.33337 9.77781M14.6667 18.1111L9.33337 14.2223" stroke="black" stroke-linecap="round"/>
<path d="M20.0001 19.2222C20.0001 19.9589 19.7191 20.6655 19.219 21.1864C18.7189 21.7073 18.0407 22 17.3334 22C16.6262 22 15.9479 21.7073 15.4478 21.1864C14.9477 20.6655 14.6667 19.9589 14.6667 19.2222C14.6667 18.4855 14.9477 17.779 15.4478 17.258C15.9479 16.7371 16.6262 16.4444 17.3334 16.4444C18.0407 16.4444 18.7189 16.7371 19.219 17.258C19.7191 17.779 20.0001 18.4855 20.0001 19.2222ZM20.0001 4.77778C20.0001 5.51449 19.7191 6.22103 19.219 6.74196C18.7189 7.2629 18.0407 7.55556 17.3334 7.55556C16.6262 7.55556 15.9479 7.2629 15.4478 6.74196C14.9477 6.22103 14.6667 5.51449 14.6667 4.77778C14.6667 4.04107 14.9477 3.33453 15.4478 2.81359C15.9479 2.29266 16.6262 2 17.3334 2C18.0407 2 18.7189 2.29266 19.219 2.81359C19.7191 3.33453 20.0001 4.04107 20.0001 4.77778Z" stroke="black"/>
</svg>
