<svg width="24" height="24" viewBox="0 0 24 24" fill="none" xmlns="http://www.w3.org/2000/svg">
<path fill-rule="evenodd" clip-rule="evenodd" d="M15.9737 14.6206L20 18.6549L18.6585 20L14.6361 15.9695C13.295 16.9815 11.6211 17.447 9.95124 17.2723C8.28141 17.0976 6.7396 16.2957 5.63607 15.0279C4.53254 13.7601 3.94921 12.1205 4.00347 10.4391C4.05773 8.75773 4.74555 7.15935 5.92851 5.96562C7.11147 4.77189 8.70177 4.07141 10.3794 4.00517C12.057 3.93892 13.6974 4.51181 14.9704 5.60855C16.2435 6.7053 17.0547 8.24449 17.2408 9.91637C17.427 11.5883 16.9742 13.2687 15.9737 14.6196V14.6206ZM15.3836 10.6547C15.3836 9.39415 14.8839 8.18521 13.9943 7.29386C13.1047 6.4025 11.8982 5.90174 10.6401 5.90174C9.38209 5.90174 8.17556 6.4025 7.28598 7.29386C6.3964 8.18521 5.89664 9.39415 5.89664 10.6547C5.89664 11.9153 6.3964 13.1242 7.28598 14.0156C8.17556 14.9069 9.38209 15.4077 10.6401 15.4077C11.8982 15.4077 13.1047 14.9069 13.9943 14.0156C14.8839 13.1242 15.3836 11.9153 15.3836 10.6547Z" fill="black"/>
</svg>
